<svg width="41" height="41" viewBox="0 0 41 41" xmlns="http://www.w3.org/2000/svg">
    <path d="M20.5 40.3203C31.3984 40.3203 40.4219 31.2773 40.4219 20.3984C40.4219 9.5 31.3789 0.476562 20.4805 0.476562C9.60156 0.476562 0.578125 9.5 0.578125 20.3984C0.578125 31.2773 9.62109 40.3203 20.5 40.3203ZM20.5 37C11.2812 37 3.91797 29.6172 3.91797 20.3984C3.91797 11.1797 11.2617 3.79688 20.4805 3.79688C29.6992 3.79688 37.082 11.1797 37.1016 20.3984C37.1211 29.6172 29.7188 37 20.5 37ZM26.6133 24.7344C20.6953 24.7344 16.9062 21.0234 16.9062 15.1055C16.9062 13.875 17.2383 12.1367 17.5898 11.2188C17.707 10.9648 17.707 10.8086 17.707 10.7109C17.707 10.418 17.4922 10.0859 17.082 10.0859C16.9453 10.0859 16.6914 10.1055 16.4375 10.2031C12.3945 11.8047 9.67969 16.1797 9.67969 20.7695C9.67969 27.1953 14.6016 31.7852 21.0078 31.7852C25.7148 31.7852 29.7578 28.8945 31.1445 25.3594C31.2617 25.1055 31.2812 24.8516 31.2812 24.7734C31.2812 24.3633 30.9492 24.0898 30.6367 24.0898C30.5 24.0898 30.3633 24.1094 30.168 24.168C29.3477 24.4609 27.9609 24.7344 26.6133 24.7344Z"/>
</svg>
