<svg width="36" height="43" viewBox="0 0 36 43" xmlns="http://www.w3.org/2000/svg">
    <path d="M18 29.6523C18.3906 29.6523 18.7422 29.5352 19.1328 29.1445L25.7344 22.7578C26.0273 22.4648 26.1836 22.1523 26.1836 21.7422C26.1836 20.9414 25.5781 20.375 24.7578 20.375C24.3867 20.375 23.9766 20.5312 23.7031 20.8438L20.7539 23.9883L19.4258 25.375L19.543 22.4453V1.85938C19.543 1.03906 18.8398 0.335938 18 0.335938C17.1602 0.335938 16.4375 1.03906 16.4375 1.85938V22.4453L16.5742 25.375L15.2461 23.9883L12.2773 20.8438C12.0039 20.5312 11.5938 20.375 11.2031 20.375C10.4023 20.375 9.79688 20.9414 9.79688 21.7422C9.79688 22.1523 9.97266 22.4648 10.2656 22.7578L16.8672 29.1445C17.2578 29.5352 17.6094 29.6523 18 29.6523ZM6.78906 42.5039H29.1914C33.2734 42.5039 35.3242 40.4727 35.3242 36.4492V16.957C35.3242 12.9336 33.2734 10.9023 29.1914 10.9023H23.7422V14.0469H29.1328C31.0664 14.0469 32.1797 15.1016 32.1797 17.1328V36.2734C32.1797 38.3047 31.0664 39.3594 29.1328 39.3594H6.82812C4.875 39.3594 3.80078 38.3047 3.80078 36.2734V17.1328C3.80078 15.1016 4.875 14.0469 6.82812 14.0469H12.2383V10.9023H6.78906C2.70703 10.9023 0.65625 12.9336 0.65625 16.957V36.4492C0.65625 40.4727 2.70703 42.5039 6.78906 42.5039Z"/>
</svg>
