<svg width="32" height="39" viewBox="0 0 32 39" xmlns="http://www.w3.org/2000/svg">
    <path d="M16 25.3096C16.7349 25.3096 17.3501 24.6943 17.3501 23.9766V6.42529L17.2476 3.86182L18.4097 5.0752L20.9902 7.84375C21.2295 8.11719 21.5884 8.25391 21.9131 8.25391C22.6309 8.25391 23.1606 7.74121 23.1606 7.04053C23.1606 6.68164 23.0239 6.4082 22.7676 6.15186L16.9912 0.580566C16.6494 0.23877 16.3418 0.119141 16 0.119141C15.6582 0.119141 15.3506 0.23877 15.0088 0.580566L9.23242 6.15186C8.97607 6.4082 8.82227 6.68164 8.82227 7.04053C8.82227 7.74121 9.35205 8.25391 10.0527 8.25391C10.3945 8.25391 10.7534 8.11719 10.9927 7.84375L13.5903 5.0752L14.7524 3.86182L14.6328 6.42529V23.9766C14.6328 24.6943 15.2651 25.3096 16 25.3096ZM6.19043 38.6909H25.7925C29.3643 38.6909 31.1587 36.9136 31.1587 33.3931V16.3374C31.1587 12.8169 29.3643 11.0396 25.7925 11.0396H21.0244V13.791H25.7412C27.4331 13.791 28.4072 14.7139 28.4072 16.4912V33.2393C28.4072 35.0166 27.4331 35.9395 25.7412 35.9395H6.22461C4.51562 35.9395 3.57568 35.0166 3.57568 33.2393V16.4912C3.57568 14.7139 4.51562 13.791 6.22461 13.791H10.9585V11.0396H6.19043C2.61865 11.0396 0.824219 12.8169 0.824219 16.3374V33.3931C0.824219 36.9136 2.61865 38.6909 6.19043 38.6909Z"/>
</svg>
