<svg xmlns="http://www.w3.org/2000/svg" width="27" height="27" viewBox="0 0 27 27">
  <path id="Icon_ionic-logo-facebook" data-name="Icon ionic-logo-facebook" d="M30.009,4.5H5.991A1.491,1.491,0,0,0,4.5,5.991V30.009A1.491,1.491,0,0,0,5.991,31.5H18V20.812H14.773V16.875H18V13.964c0-3.487,2.419-5.386,5.534-5.386,1.491,0,3.094.113,3.466.162v3.642H24.518c-1.695,0-2.018.8-2.018,1.983v2.51h4.036l-.527,3.937H22.5V31.5h7.509A1.491,1.491,0,0,0,31.5,30.009V5.991A1.491,1.491,0,0,0,30.009,4.5Z" transform="translate(-4.5 -4.5)" fill="#58585a" opacity="0.75"/>
</svg>
