<svg xmlns="http://www.w3.org/2000/svg" width="28.897" height="28.891" viewBox="0 0 28.897 28.891">
  <path id="Icon_awesome-instagram" data-name="Icon awesome-instagram" d="M14.447,9.276a7.407,7.407,0,1,0,7.407,7.407A7.4,7.4,0,0,0,14.447,9.276Zm0,12.223a4.816,4.816,0,1,1,4.816-4.816A4.824,4.824,0,0,1,14.447,21.5ZM23.885,8.973a1.728,1.728,0,1,1-1.728-1.728A1.724,1.724,0,0,1,23.885,8.973Zm4.906,1.753a8.55,8.55,0,0,0-2.334-6.053A8.606,8.606,0,0,0,20.4,2.339c-2.385-.135-9.535-.135-11.92,0A8.594,8.594,0,0,0,2.43,4.666,8.578,8.578,0,0,0,.1,10.72c-.135,2.385-.135,9.535,0,11.92A8.55,8.55,0,0,0,2.43,28.693a8.617,8.617,0,0,0,6.053,2.334c2.385.135,9.535.135,11.92,0a8.55,8.55,0,0,0,6.053-2.334,8.606,8.606,0,0,0,2.334-6.053c.135-2.385.135-9.528,0-11.913ZM25.709,25.2a4.875,4.875,0,0,1-2.746,2.746c-1.9.754-6.414.58-8.516.58s-6.621.168-8.516-.58A4.875,4.875,0,0,1,3.184,25.2c-.754-1.9-.58-6.414-.58-8.516s-.168-6.621.58-8.516A4.875,4.875,0,0,1,5.931,5.421c1.9-.754,6.414-.58,8.516-.58s6.621-.168,8.516.58a4.875,4.875,0,0,1,2.746,2.746c.754,1.9.58,6.414.58,8.516S26.463,23.3,25.709,25.2Z" transform="translate(0.005 -2.238)" fill="#58585a" opacity="0.75"/>
</svg>
