<svg xmlns="http://www.w3.org/2000/svg" width="32.482" height="26.397" viewBox="0 0 32.482 26.397">
  <path id="Icon_metro-twitter" data-name="Icon metro-twitter" d="M35.052,7.942a13.324,13.324,0,0,1-3.827,1.049A6.684,6.684,0,0,0,34.155,5.3a13.341,13.341,0,0,1-4.232,1.617A6.67,6.67,0,0,0,18.567,13,18.919,18.919,0,0,1,4.832,6.037a6.671,6.671,0,0,0,2.062,8.9A6.637,6.637,0,0,1,3.876,14.1c0,.028,0,.056,0,.084a6.668,6.668,0,0,0,5.346,6.534,6.675,6.675,0,0,1-3.009.114,6.671,6.671,0,0,0,6.225,4.628A13.37,13.37,0,0,1,4.16,28.313a13.516,13.516,0,0,1-1.59-.093,18.862,18.862,0,0,0,10.215,2.994c12.257,0,18.96-10.154,18.96-18.96q0-.433-.019-.862a13.537,13.537,0,0,0,3.325-3.449Z" transform="translate(-2.571 -4.817)" fill="#58585a" opacity="0.75"/>
</svg>

