<svg xmlns="http://www.w3.org/2000/svg" width="70.095" height="56.076" viewBox="0 0 70.095 56.076">
  <path id="Icon_awesome-laptop" data-name="Icon awesome-laptop" d="M68.342,45.562H41.787a3.453,3.453,0,0,1-3.586,3.5H31.543a3.719,3.719,0,0,1-3.589-3.5H1.752A1.758,1.758,0,0,0,0,47.314v1.752a7.03,7.03,0,0,0,7.009,7.009H63.085a7.03,7.03,0,0,0,7.009-7.009V47.314A1.758,1.758,0,0,0,68.342,45.562Zm-5.257-40.3A5.273,5.273,0,0,0,57.828,0H12.267A5.273,5.273,0,0,0,7.009,5.257v36.8H63.085Zm-7.009,29.79H14.019V7.009H56.076Z" fill="#fcc010"/>
</svg>
