<svg xmlns="http://www.w3.org/2000/svg" width="18.85" height="18.85" viewBox="0 0 18.85 18.85">
  <path id="Icon_awesome-phone-alt" data-name="Icon awesome-phone-alt" d="M18.312,13.32l-4.123-1.767a.884.884,0,0,0-1.031.254l-1.826,2.231A13.646,13.646,0,0,1,4.808,7.515L7.039,5.689a.881.881,0,0,0,.254-1.031L5.526.534A.889.889,0,0,0,4.514.023L.685.906A.884.884,0,0,0,0,1.767,17.081,17.081,0,0,0,17.083,18.85a.884.884,0,0,0,.861-.685l.884-3.829a.894.894,0,0,0-.516-1.016Z" transform="translate(0 0)" fill="#58585a" opacity="0.75"/>
</svg>
