<svg xmlns="http://www.w3.org/2000/svg" width="42.182" height="34.281" viewBox="0 0 42.182 34.281">
  <path id="Icon_metro-twitter" data-name="Icon metro-twitter" d="M44.753,8.875a17.3,17.3,0,0,1-4.97,1.363A8.68,8.68,0,0,0,43.588,5.45a17.325,17.325,0,0,1-5.5,2.1,8.662,8.662,0,0,0-14.747,7.893A24.569,24.569,0,0,1,5.507,6.4,8.664,8.664,0,0,0,8.186,17.955a8.619,8.619,0,0,1-3.92-1.082c0,.036,0,.072,0,.109a8.66,8.66,0,0,0,6.942,8.486,8.668,8.668,0,0,1-3.908.148,8.663,8.663,0,0,0,8.084,6.01,17.363,17.363,0,0,1-10.748,3.7,17.553,17.553,0,0,1-2.064-.121A24.5,24.5,0,0,0,15.837,39.1c15.918,0,24.623-13.187,24.623-24.623q0-.563-.025-1.12a17.581,17.581,0,0,0,4.319-4.48Z" transform="translate(-2.571 -4.817)" fill="#fff"/>
</svg>
