<svg xmlns="http://www.w3.org/2000/svg" width="43.801" height="47.692" viewBox="0 0 43.801 47.692">
  <path id="Icon_ionic-ios-medical" data-name="Icon ionic-ios-medical" d="M49.141,18.2l-2.049-3.551a1.93,1.93,0,0,0-2.632-.708L32.217,21.014a.5.5,0,0,1-.745-.435V6.425A1.918,1.918,0,0,0,29.547,4.5h-4.1a1.918,1.918,0,0,0-1.925,1.925V20.592a.5.5,0,0,1-.745.435L10.538,13.949a1.93,1.93,0,0,0-2.632.708L5.856,18.208a1.912,1.912,0,0,0,.708,2.62l12.255,7.09a.491.491,0,0,1,0,.857L6.564,35.865a1.926,1.926,0,0,0-.708,2.62l2.049,3.551a1.93,1.93,0,0,0,2.632.708L22.78,35.666a.5.5,0,0,1,.745.435V50.268a1.918,1.918,0,0,0,1.925,1.925h4.1a1.918,1.918,0,0,0,1.925-1.925V36.088a.5.5,0,0,1,.745-.435L44.46,42.731a1.93,1.93,0,0,0,2.632-.708l2.049-3.551a1.912,1.912,0,0,0-.708-2.62l-12.255-7.09a.491.491,0,0,1,0-.857l12.255-7.09A1.923,1.923,0,0,0,49.141,18.2Z" transform="translate(-5.598 -4.5)" fill="#fff"/>
</svg>
