<svg xmlns="http://www.w3.org/2000/svg" width="37.528" height="37.52" viewBox="0 0 37.528 37.52">
  <path id="Icon_awesome-instagram" data-name="Icon awesome-instagram" d="M18.763,11.378A9.62,9.62,0,1,0,28.382,21,9.6,9.6,0,0,0,18.763,11.378Zm0,15.874A6.254,6.254,0,1,1,25.017,21a6.265,6.265,0,0,1-6.254,6.254ZM31.02,10.984a2.244,2.244,0,1,1-2.244-2.244A2.239,2.239,0,0,1,31.02,10.984Zm6.371,2.277c-.142-3.006-.829-5.668-3.031-7.861S29.5,2.52,26.5,2.37c-3.1-.176-12.382-.176-15.48,0-3,.142-5.66.829-7.861,3.022S.277,10.248.127,13.253c-.176,3.1-.176,12.382,0,15.48.142,3.006.829,5.668,3.031,7.861s4.856,2.88,7.861,3.031c3.1.176,12.382.176,15.48,0,3.006-.142,5.668-.829,7.861-3.031s2.88-4.856,3.031-7.861c.176-3.1.176-12.374,0-15.472Zm-4,18.8a6.332,6.332,0,0,1-3.567,3.567c-2.47.98-8.33.753-11.06.753s-8.6.218-11.06-.753a6.332,6.332,0,0,1-3.567-3.567c-.98-2.47-.753-8.33-.753-11.06s-.218-8.6.753-11.06A6.332,6.332,0,0,1,7.7,6.371c2.47-.98,8.33-.753,11.06-.753s8.6-.218,11.06.753a6.332,6.332,0,0,1,3.567,3.567c.98,2.47.753,8.33.753,11.06S34.368,29.6,33.389,32.057Z" transform="translate(0.005 -2.238)" fill="#fff"/>
</svg>
