<svg xmlns="http://www.w3.org/2000/svg" width="27.242" height="29.662" viewBox="0 0 27.242 29.662">
  <path id="Icon_ionic-ios-medical" data-name="Icon ionic-ios-medical" d="M32.68,13.018l-1.274-2.209a1.2,1.2,0,0,0-1.637-.44l-7.614,4.4a.31.31,0,0,1-.463-.27V5.7a1.193,1.193,0,0,0-1.2-1.2H17.945a1.193,1.193,0,0,0-1.2,1.2v8.811a.31.31,0,0,1-.463.27l-7.614-4.4a1.2,1.2,0,0,0-1.637.44L5.759,13.026a1.189,1.189,0,0,0,.44,1.629l7.622,4.41a.305.305,0,0,1,0,.533L6.2,24.007a1.2,1.2,0,0,0-.44,1.629l1.274,2.209a1.2,1.2,0,0,0,1.637.44l7.614-4.4a.31.31,0,0,1,.463.27v8.811a1.193,1.193,0,0,0,1.2,1.2h2.548a1.193,1.193,0,0,0,1.2-1.2V24.146a.312.312,0,0,1,.463-.27l7.614,4.4a1.2,1.2,0,0,0,1.637-.44l1.274-2.209A1.189,1.189,0,0,0,32.24,24l-7.622-4.41a.305.305,0,0,1,0-.533l7.622-4.41A1.2,1.2,0,0,0,32.68,13.018Z" transform="translate(-5.598 -4.5)" fill="#fff"/>
</svg>
