<svg xmlns="http://www.w3.org/2000/svg" width="19.417" height="19.417" viewBox="0 0 19.417 19.417">
  <path id="Icon_awesome-pencil-alt" data-name="Icon awesome-pencil-alt" d="M18.884,5.392,17.136,7.14a.456.456,0,0,1-.645,0l-4.21-4.21a.456.456,0,0,1,0-.645L14.03.537a1.824,1.824,0,0,1,2.575,0l2.279,2.279A1.818,1.818,0,0,1,18.884,5.392Zm-8.1-1.6L.82,13.747l-.8,4.608A.911.911,0,0,0,1.07,19.409L5.678,18.6l9.959-9.959a.456.456,0,0,0,0-.645l-4.21-4.21a.46.46,0,0,0-.649,0ZM4.707,12.894a.529.529,0,0,1,0-.751L10.548,6.3a.531.531,0,1,1,.751.751L5.458,12.894a.529.529,0,0,1-.751,0Zm-1.369,3.19h1.82V17.46l-2.446.429-1.18-1.18.429-2.446H3.338Z" transform="translate(-0.002 -0.005)" fill="#fcc010"/>
</svg>
