<svg xmlns="http://www.w3.org/2000/svg" width="48.002" height="47.002" viewBox="0 0 48.002 47.002">
  <path id="Icon_map-doctor" data-name="Icon map-doctor" d="M42.645,12.72H37.721V7.494A6.707,6.707,0,0,0,31.027.72H18.416a6.706,6.706,0,0,0-6.7,6.774V12.72H6.8A5.964,5.964,0,0,0,.72,18.658V41.665A6.065,6.065,0,0,0,6.8,47.722h35.85a6.067,6.067,0,0,0,6.076-6.057V18.658A5.966,5.966,0,0,0,42.645,12.72ZM15.721,7.494a2.888,2.888,0,0,1,2.7-2.774H31.027a2.89,2.89,0,0,1,2.694,2.774V12.72h-18Zm20,27.227h-7v7h-8v-7h-7v-8h7v-7h8v7h7v8Z" transform="translate(-0.72 -0.72)" fill="#fcc010"/>
</svg>
