<svg xmlns="http://www.w3.org/2000/svg" width="11.612" height="10.782" viewBox="0 0 11.612 10.782">
  <path id="Icon_ionic-ios-star" data-name="Icon ionic-ios-star" d="M13.421,7.107H9.608L8.45,3.65a.42.42,0,0,0-.788,0L6.5,7.107H2.665a.416.416,0,0,0-.415.415.3.3,0,0,0,.008.07.4.4,0,0,0,.174.293l3.134,2.208-1.2,3.5a.416.416,0,0,0,.143.467.4.4,0,0,0,.233.1A.508.508,0,0,0,5,14.064l3.058-2.18,3.058,2.18a.486.486,0,0,0,.259.093.372.372,0,0,0,.231-.1.411.411,0,0,0,.143-.467l-1.2-3.5,3.108-2.229.075-.065a.4.4,0,0,0-.306-.692Z" transform="translate(-2.25 -3.375)" fill="#ffd87e"/>
</svg>
